<svg xmlns="http://www.w3.org/2000/svg" width="595.589" height="319.981" viewBox="0 0 595.589 319.981">
  <g id="Grupo_11604" data-name="Grupo 11604" transform="translate(-170.758 -2446.048)">
    <g id="Grupo_11581" data-name="Grupo 11581">
      <text id="Recta" transform="translate(189.721 2547.835)" fill="#fff" font-size="16" font-family="OpenSans-Bold, Open Sans" font-weight="700"><tspan x="21.017" y="17">Recta</tspan></text>
      <g id="Grupo_11580" data-name="Grupo 11580">
        <g id="Grupo_11577" data-name="Grupo 11577">
          <g id="Grupo_11576" data-name="Grupo 11576">
            <path id="Trazado_13279" data-name="Trazado 13279" d="M274.124,2458.157h-10.8a1.349,1.349,0,0,0-1.35,1.35v4.052H239.01v-4.052a1.349,1.349,0,0,0-1.35-1.35H226.855a1.35,1.35,0,0,0-1.35,1.35v4.052H202.546v-4.052a1.35,1.35,0,0,0-1.351-1.35h-10.8a1.35,1.35,0,0,0-1.351,1.35v10.8a1.351,1.351,0,0,0,1.351,1.35h10.8a1.351,1.351,0,0,0,1.351-1.35v-4.052s20.066.154,22.959.018v4.034a1.351,1.351,0,0,0,1.35,1.35H237.66a1.35,1.35,0,0,0,1.35-1.35v-4.034c2.889.135,22.96-.018,22.96-.018v4.052a1.35,1.35,0,0,0,1.35,1.35h10.8a1.351,1.351,0,0,0,1.351-1.35v-10.8A1.35,1.35,0,0,0,274.124,2458.157Zm-74.279,10.8h-8.1v-8.1h8.1Zm36.464,0h-8.1v-8.1h8.1Zm36.465,0h-8.1v-8.1h8.1Z" fill="#fff"/>
          </g>
        </g>
        <g id="Grupo_11579" data-name="Grupo 11579">
          <g id="Grupo_11578" data-name="Grupo 11578">
            <path id="Trazado_13280" data-name="Trazado 13280" d="M255.039,2512.859l-21.609-37.815a1.4,1.4,0,0,0-2.345,0l-21.608,37.815a1.383,1.383,0,0,0-.092.194,1.35,1.35,0,0,0,.787,1.74c.1.035,8.679,3.347,9.808,9.54h-3.929v2.7H220.1v17.557h2.7v-9.453h18.907v9.453h2.7v-17.557h4.052v-2.7h-3.928c1.129-6.193,9.712-9.505,9.807-9.54a1.4,1.4,0,0,0,.194-.091A1.351,1.351,0,0,0,255.039,2512.859Zm-22.781-11.485a2.7,2.7,0,1,1-2.7,2.7A2.7,2.7,0,0,1,232.258,2501.374Zm9.453,31.063H222.8v-5.4h18.907Zm.087-8.1H222.717c-.819-6.295-7.216-10.038-10.149-11.44l18.339-32.093v18.043a5.4,5.4,0,1,0,2.7,0V2480.8l18.339,32.093C249.014,2514.295,242.618,2518.038,241.8,2524.333Z" fill="#fff"/>
          </g>
        </g>
      </g>
      <rect id="Rectángulo_3733" data-name="Rectángulo 3733" width="120" height="124.696" rx="14.087" transform="translate(172.258 2447.548)" fill="none" stroke="#fff" stroke-miterlimit="10" stroke-width="3"/>
    </g>
    <g id="Grupo_11587" data-name="Grupo 11587">
      <text id="Curva" transform="translate(346.981 2547.835)" fill="#fff" font-size="16" font-family="OpenSans-Bold, Open Sans" font-weight="700"><tspan x="20.071" y="17">Curva</tspan></text>
      <g id="Grupo_11586" data-name="Grupo 11586">
        <g id="Grupo_11583" data-name="Grupo 11583">
          <g id="Grupo_11582" data-name="Grupo 11582">
            <path id="Trazado_13281" data-name="Trazado 13281" d="M396.271,2463.559v-4.052a1.35,1.35,0,0,0-1.351-1.35h-10.8a1.35,1.35,0,0,0-1.351,1.35v4.052s-7.1.858-11.139,2.7a23.122,23.122,0,0,0-6.291,4.289c-5.21,4.943-7.967,12.128-8.21,21.371h-4.072a1.351,1.351,0,0,0-1.35,1.351v10.8a1.351,1.351,0,0,0,1.35,1.351h10.8a1.35,1.35,0,0,0,1.35-1.351v-10.8a1.35,1.35,0,0,0-1.35-1.351h-4.031c.235-8.452,2.7-14.972,7.344-19.388,5.51-5.239,12.7-6.118,15.594-6.254v4.034a1.351,1.351,0,0,0,1.351,1.35h10.8a1.351,1.351,0,0,0,1.351-1.35v-4.034c2.888.135,10.083,1.011,15.6,6.252,4.641,4.418,7.108,10.938,7.344,19.39h-4.032a1.351,1.351,0,0,0-1.35,1.351v10.8a1.351,1.351,0,0,0,1.35,1.351h10.8a1.35,1.35,0,0,0,1.35-1.351v-10.8a1.35,1.35,0,0,0-1.35-1.351h-4.071c-.243-9.243-3-16.429-8.206-21.372a25.194,25.194,0,0,0-6.289-4.288C402.8,2463.983,396.271,2463.559,396.271,2463.559Zm-33.764,31.062v8.1h-8.1v-8.1Zm31.063-25.66h-8.1v-8.1h8.1Zm31.062,25.66v8.1h-8.1v-8.1Z" fill="#fff"/>
          </g>
        </g>
        <g id="Grupo_11585" data-name="Grupo 11585">
          <g id="Grupo_11584" data-name="Grupo 11584">
            <path id="Trazado_13282" data-name="Trazado 13282" d="M412.3,2512.859l-21.609-37.815a1.4,1.4,0,0,0-2.344,0l-21.609,37.815a1.378,1.378,0,0,0-.091.194,1.35,1.35,0,0,0,.787,1.74c.094.035,8.678,3.347,9.807,9.54h-3.928v2.7h4.051v17.557h2.7v-9.453h18.908v9.453h2.7v-17.557h4.052v-2.7H401.8c1.129-6.193,9.713-9.505,9.808-9.54a1.385,1.385,0,0,0,.193-.091A1.351,1.351,0,0,0,412.3,2512.859Zm-22.781-11.485a2.7,2.7,0,1,1-2.7,2.7A2.7,2.7,0,0,1,389.518,2501.374Zm9.454,31.063H380.064v-5.4h18.908Zm.086-8.1h-19.08c-.82-6.295-7.216-10.038-10.149-11.44l18.339-32.093v18.043a5.4,5.4,0,1,0,2.7,0V2480.8l18.339,32.093C406.274,2514.295,399.878,2518.038,399.058,2524.333Z" fill="#fff"/>
          </g>
        </g>
      </g>
      <rect id="Rectángulo_3734" data-name="Rectángulo 3734" width="120" height="124.696" rx="14.087" transform="translate(329.518 2447.548)" fill="none" stroke="#fff" stroke-miterlimit="10" stroke-width="3"/>
    </g>
    <text id="Poligonal" transform="translate(504.286 2547.835)" fill="#fff" font-size="16" font-family="OpenSans-Bold, Open Sans" font-weight="700"><tspan x="6.579" y="17">Poligonal</tspan></text>
    <rect id="Rectángulo_3735" data-name="Rectángulo 3735" width="120" height="124.696" rx="14.087" transform="translate(486.822 2447.548)" fill="none" stroke="#fff" stroke-miterlimit="10" stroke-width="3"/>
    <text id="Mixta" transform="translate(662.31 2547.835)" fill="#fff" font-size="16" font-family="OpenSans-Bold, Open Sans" font-weight="700"><tspan x="20.528" y="17">Mixta</tspan></text>
    <g id="Grupo_11589" data-name="Grupo 11589">
      <g id="Grupo_11588" data-name="Grupo 11588">
        <path id="Trazado_13283" data-name="Trazado 13283" d="M731.947,2474.861v-3.572a1.192,1.192,0,0,0-1.191-1.191h-9.527a1.192,1.192,0,0,0-1.191,1.191v3.572s-6.258.757-9.821,2.382a20.377,20.377,0,0,0-5.547,3.782c-4.594,4.358-7.026,10.694-7.24,18.843h-3.59a1.191,1.191,0,0,0-1.19,1.191v9.527a1.191,1.191,0,0,0,1.19,1.191h9.527a1.191,1.191,0,0,0,1.191-1.191v-9.527a1.191,1.191,0,0,0-1.191-1.191h-3.554c.207-7.453,2.382-13.2,6.475-17.095,4.858-4.619,11.2-5.394,13.75-5.514v3.556a1.192,1.192,0,0,0,1.191,1.191h9.527a1.192,1.192,0,0,0,1.191-1.191v-3.556c2.546.119,8.89.891,13.75,5.513,4.093,3.9,6.268,9.643,6.476,17.1h-3.555a1.192,1.192,0,0,0-1.191,1.191v9.527a1.192,1.192,0,0,0,1.191,1.191h9.527a1.191,1.191,0,0,0,1.19-1.191v-9.527a1.191,1.191,0,0,0-1.19-1.191h-3.59c-.214-8.149-2.645-14.486-7.235-18.844a22.185,22.185,0,0,0-5.546-3.781C737.7,2475.235,731.947,2474.861,731.947,2474.861Zm-29.771,27.389v7.145h-7.145v-7.145Zm27.389-22.626H722.42v-7.144h7.145Zm27.389,22.626v7.145h-7.145v-7.145Z" fill="#fff"/>
      </g>
    </g>
    <g id="Grupo_11591" data-name="Grupo 11591">
      <g id="Grupo_11590" data-name="Grupo 11590">
        <path id="Trazado_13284" data-name="Trazado 13284" d="M658.52,2499.97h-3.554a1.191,1.191,0,0,0-1.191,1.191v9.526a1.191,1.191,0,0,0,1.191,1.191h9.526a1.191,1.191,0,0,0,1.191-1.191v-9.526a1.191,1.191,0,0,0-1.191-1.191H658.52Zm4.782,2.382v7.145h-7.145v-7.145Z" fill="#fff"/>
      </g>
    </g>
    <rect id="Rectángulo_3736" data-name="Rectángulo 3736" width="120" height="124.696" rx="14.087" transform="translate(644.847 2447.548)" fill="none" stroke="#fff" stroke-miterlimit="10" stroke-width="3"/>
    <text id="Oblicua" transform="translate(268.733 2728.029)" fill="#fff" font-size="16" font-family="OpenSans-Bold, Open Sans" font-weight="700"><tspan x="12.927" y="17">Oblicua</tspan></text>
    <g id="Grupo_11593" data-name="Grupo 11593">
      <g id="Grupo_11592" data-name="Grupo 11592">
        <path id="Trazado_13285" data-name="Trazado 13285" d="M343.292,2638.552l-9.64,9.98a1.734,1.734,0,0,0,.043,2.452l3.742,3.615-20.484,21.207-3.743-3.615a1.734,1.734,0,0,0-2.452.043l-9.64,9.979a1.737,1.737,0,0,0,.042,2.453l3.743,3.615-20.485,21.206-3.742-3.614a1.733,1.733,0,0,0-2.452.042l-9.64,9.98a1.733,1.733,0,0,0,.042,2.452l9.98,9.64a1.734,1.734,0,0,0,2.452-.043l9.64-9.979a1.735,1.735,0,0,0-.042-2.453l-3.743-3.615s18.046-18.4,20.5-21.19l3.725,3.6a1.735,1.735,0,0,0,2.453-.042l9.639-9.98a1.733,1.733,0,0,0-.042-2.452l-3.726-3.6c2.7-2.548,20.468-21.223,20.468-21.223l3.742,3.615a1.735,1.735,0,0,0,2.453-.043l9.64-9.979a1.736,1.736,0,0,0-.043-2.453l-9.98-9.64A1.734,1.734,0,0,0,343.292,2638.552ZM287,2716.8l-7.23,7.485-7.484-7.23,7.23-7.485Zm32.534-33.681-7.229,7.485-7.485-7.23,7.23-7.485Zm32.535-33.682-7.23,7.485-7.485-7.23,7.23-7.485Z" fill="#fff"/>
      </g>
    </g>
    <rect id="Rectángulo_3737" data-name="Rectángulo 3737" width="120" height="124.696" rx="14.087" transform="translate(251.27 2627.742)" fill="none" stroke="#fff" stroke-miterlimit="10" stroke-width="3"/>
    <text id="Abierta" transform="translate(425.993 2728.029)" fill="#fff" font-size="16" font-family="OpenSans-Bold, Open Sans" font-weight="700"><tspan x="13.755" y="17">Abierta</tspan></text>
    <g id="Grupo_11598" data-name="Grupo 11598">
      <g id="Grupo_11595" data-name="Grupo 11595">
        <g id="Grupo_11594" data-name="Grupo 11594">
          <path id="Trazado_13286" data-name="Trazado 13286" d="M501.888,2692.154l1.974,2.556a1.076,1.076,0,0,0,1.51.194l6.816-5.263a1.076,1.076,0,0,0,.194-1.51l-1.973-2.556s4.06-4,5.712-7.13a18.413,18.413,0,0,0,1.879-5.771c.88-5.656-.88-11.532-5.229-17.482l2.568-1.983a1.076,1.076,0,0,0,.194-1.51l-5.262-6.817a1.078,1.078,0,0,0-1.51-.194l-6.817,5.263a1.076,1.076,0,0,0-.194,1.51l5.263,6.816a1.077,1.077,0,0,0,1.51.195l2.543-1.964c3.969,5.448,5.588,10.763,4.811,15.81-.925,5.989-5.034,10.047-6.793,11.541l-1.965-2.544a1.074,1.074,0,0,0-1.509-.194l-6.817,5.262a1.076,1.076,0,0,0-.194,1.51l1.964,2.545c-1.887,1.322-6.854,4.274-12.884,3.652-5.08-.526-9.812-3.438-14.078-8.656l2.543-1.964a1.076,1.076,0,0,0,.194-1.51l-5.263-6.816a1.076,1.076,0,0,0-1.51-.194l-6.816,5.262a1.076,1.076,0,0,0-.194,1.51l5.262,6.817a1.077,1.077,0,0,0,1.51.194l2.569-1.983c4.656,5.713,9.895,8.9,15.587,9.487a20.072,20.072,0,0,0,6.057-.358A27.9,27.9,0,0,0,501.888,2692.154Zm6.171-36.044L504.112,2651l5.112-3.947,3.947,5.112Zm-7.1,31.32,5.112-3.947,3.947,5.112-5.112,3.947Zm-32.1-1.059-3.947-5.112,5.112-3.947,3.947,5.112Z" fill="#fff"/>
        </g>
      </g>
      <g id="Grupo_11597" data-name="Grupo 11597">
        <g id="Grupo_11596" data-name="Grupo 11596">
          <path id="Trazado_13287" data-name="Trazado 13287" d="M428.465,2678.083l-1.973-2.556a1.076,1.076,0,0,1,.194-1.51l6.816-5.263a1.077,1.077,0,0,1,1.51.2l1.974,2.556s4.9-2.916,8.343-3.722a18.406,18.406,0,0,1,6.059-.358c5.694.58,10.934,3.77,15.59,9.483l2.569-1.983a1.077,1.077,0,0,1,1.51.194l5.262,6.817a1.075,1.075,0,0,1-.194,1.51l-6.816,5.263a1.077,1.077,0,0,1-1.51-.194l-5.263-6.817a1.076,1.076,0,0,1,.194-1.51l2.543-1.963c-4.266-5.219-9-8.13-14.077-8.655-6.029-.622-10.994,2.327-12.885,3.651l1.964,2.544a1.075,1.075,0,0,1-.194,1.51l-6.817,5.263a1.076,1.076,0,0,1-1.509-.194l-1.965-2.545c-1.757,1.492-5.869,5.549-6.793,11.541-.777,5.048.842,10.363,4.811,15.811l2.543-1.964a1.077,1.077,0,0,1,1.51.194l5.263,6.817a1.078,1.078,0,0,1-.194,1.51l-6.817,5.262a1.076,1.076,0,0,1-1.51-.194l-5.262-6.816a1.075,1.075,0,0,1,.194-1.51l2.568-1.983c-4.349-5.95-6.11-11.827-5.234-17.481a20.086,20.086,0,0,1,1.88-5.769A27.915,27.915,0,0,1,428.465,2678.083Zm36.433,3.151,3.947,5.113,5.112-3.947-3.947-5.113Zm-32.1-1.058,5.112-3.947-3.947-5.113-5.112,3.947Zm-7.1,31.32,3.947,5.112,5.112-3.947-3.947-5.112Z" fill="#fff"/>
        </g>
      </g>
    </g>
    <rect id="Rectángulo_3738" data-name="Rectángulo 3738" width="120" height="124.696" rx="14.087" transform="translate(408.53 2627.742)" fill="none" stroke="#fff" stroke-miterlimit="10" stroke-width="3"/>
    <text id="Cerrada" transform="translate(583.298 2728.029)" fill="#fff" font-size="16" font-family="OpenSans-Bold, Open Sans" font-weight="700"><tspan x="11.626" y="17">Cerrada</tspan></text>
    <g id="Grupo_11603" data-name="Grupo 11603">
      <g id="Grupo_11600" data-name="Grupo 11600">
        <g id="Grupo_11599" data-name="Grupo 11599">
          <path id="Trazado_13288" data-name="Trazado 13288" d="M632.587,2643.753V2639.7a1.35,1.35,0,0,0-1.35-1.351h-10.8a1.351,1.351,0,0,0-1.35,1.351v4.052s-7.1.858-11.139,2.7a23.106,23.106,0,0,0-6.291,4.289c-5.21,4.942-7.968,12.128-8.211,21.371H589.37a1.351,1.351,0,0,0-1.351,1.351v10.8a1.351,1.351,0,0,0,1.351,1.351h10.8a1.351,1.351,0,0,0,1.351-1.351v-10.8a1.351,1.351,0,0,0-1.351-1.351h-4.031c.236-8.453,2.7-14.972,7.344-19.388,5.51-5.239,12.7-6.118,15.595-6.254v4.033a1.351,1.351,0,0,0,1.35,1.351h10.8a1.35,1.35,0,0,0,1.35-1.351v-4.033c2.889.135,10.083,1.011,15.6,6.252,4.642,4.418,7.109,10.937,7.344,19.39h-4.031a1.351,1.351,0,0,0-1.351,1.351v10.8a1.351,1.351,0,0,0,1.351,1.351h10.8a1.351,1.351,0,0,0,1.351-1.351v-10.8a1.351,1.351,0,0,0-1.351-1.351h-4.071c-.243-9.243-3-16.429-8.205-21.372a25.18,25.18,0,0,0-6.29-4.288C639.115,2644.176,632.587,2643.753,632.587,2643.753Zm-33.763,31.062v8.1h-8.1v-8.1Zm31.062-25.66h-8.1v-8.1h8.1Zm31.063,25.66v8.1h-8.1v-8.1Z" fill="#fff"/>
        </g>
      </g>
      <g id="Grupo_11602" data-name="Grupo 11602">
        <g id="Grupo_11601" data-name="Grupo 11601">
          <path id="Trazado_13289" data-name="Trazado 13289" d="M632.587,2713.985v4.051a1.35,1.35,0,0,1-1.35,1.351h-10.8a1.351,1.351,0,0,1-1.35-1.351v-4.051s-7.1-.859-11.139-2.7a23.112,23.112,0,0,1-6.291-4.29c-5.21-4.942-7.968-12.128-8.211-21.371H589.37a1.35,1.35,0,0,1-1.351-1.35v-10.8a1.35,1.35,0,0,1,1.351-1.35h10.8a1.35,1.35,0,0,1,1.351,1.35v10.8a1.35,1.35,0,0,1-1.351,1.35h-4.031c.236,8.453,2.7,14.973,7.344,19.389,5.51,5.239,12.7,6.117,15.595,6.253v-4.033a1.351,1.351,0,0,1,1.35-1.351h10.8a1.35,1.35,0,0,1,1.35,1.351v4.033c2.889-.134,10.083-1.011,15.6-6.252,4.642-4.417,7.109-10.937,7.344-19.39h-4.031a1.35,1.35,0,0,1-1.351-1.35v-10.8a1.35,1.35,0,0,1,1.351-1.35h10.8a1.35,1.35,0,0,1,1.351,1.35v10.8a1.35,1.35,0,0,1-1.351,1.35h-4.071c-.243,9.243-3,16.429-8.205,21.373a25.213,25.213,0,0,1-6.29,4.288C639.115,2713.561,632.587,2713.985,632.587,2713.985Zm-33.763-31.063v-8.1h-8.1v8.1Zm31.062,25.66h-8.1v8.1h8.1Zm31.063-25.66v-8.1h-8.1v8.1Z" fill="#fff"/>
        </g>
      </g>
    </g>
    <rect id="Rectángulo_3739" data-name="Rectángulo 3739" width="120" height="124.696" rx="14.087" transform="translate(565.835 2627.742)" fill="none" stroke="#fff" stroke-miterlimit="10" stroke-width="3"/>
    <path id="Trazado_13290" data-name="Trazado 13290" d="M585.562,2496.147h-1.577l-11.2-19.249h1.55a2.406,2.406,0,0,0,2.406-2.406v-9.625a2.406,2.406,0,0,0-2.406-2.406h-9.625a2.406,2.406,0,0,0-2.406,2.406v2.612H531.343v-2.612a2.406,2.406,0,0,0-2.406-2.406h-9.625a2.407,2.407,0,0,0-2.407,2.406v9.625a2.407,2.407,0,0,0,2.407,2.406h1.274l-11.114,19.249h-1.389a2.406,2.406,0,0,0-2.406,2.407v9.624a2.406,2.406,0,0,0,2.406,2.406h1.389l11.3,19.57h-1.459a2.407,2.407,0,0,0-2.407,2.407v9.625a2.406,2.406,0,0,0,2.407,2.405h9.625a2.406,2.406,0,0,0,2.406-2.405v-2.934H562.3v2.934a2.406,2.406,0,0,0,2.406,2.405h9.625a2.4,2.4,0,0,0,2.406-2.405v-9.625a2.407,2.407,0,0,0-2.406-2.407h-1.619l11.3-19.57h1.55a2.406,2.406,0,0,0,2.406-2.406v-9.624A2.406,2.406,0,0,0,585.562,2496.147Zm-2.406,4.812v4.813h-4.812v-4.813Zm-16.041-33.686h4.812v4.812h-4.812Zm-45.4,0h4.812v4.812h-4.812Zm-11.229,38.5v-4.813H515.3v4.813Zm16.041,34.007h-4.812v-4.812h4.812Zm45.4,0h-4.812v-4.812h4.812Zm-4.77-9.625h-2.449a2.407,2.407,0,0,0-2.406,2.407v1.878H531.343v-1.878a2.407,2.407,0,0,0-2.406-2.407h-2.609l-11.3-19.57h2.679a2.406,2.406,0,0,0,2.406-2.406v-9.624a2.407,2.407,0,0,0-2.406-2.407h-2.679l11.114-19.249h2.794a2.407,2.407,0,0,0,2.406-2.406v-2.2H562.3v2.2a2.407,2.407,0,0,0,2.406,2.406h2.507l11.2,19.249h-2.48a2.407,2.407,0,0,0-2.406,2.407v9.624a2.406,2.406,0,0,0,2.406,2.406h2.519Z" fill="#fff"/>
    <rect id="Rectángulo_3740" data-name="Rectángulo 3740" width="28.209" height="2.626" transform="translate(664.844 2504.519)" fill="#fff"/>
  </g>
</svg>
